<?xml version="1.0" encoding="UTF-8" standalone="no"?>
<!DOCTYPE svg PUBLIC "-//W3C//DTD SVG 1.1//EN" "http://www.w3.org/Graphics/SVG/1.1/DTD/svg11.dtd">
<svg width="100%" height="100%" viewBox="0 0 1024 1024" version="1.1" xmlns="http://www.w3.org/2000/svg" xmlns:xlink="http://www.w3.org/1999/xlink" xml:space="preserve" xmlns:serif="http://www.serif.com/" style="fill-rule:evenodd;clip-rule:evenodd;stroke-linecap:round;stroke-linejoin:round;stroke-miterlimit:1.5;">
    <path id="Background" d="M172.525,3l678.949,0c93.627,0 169.526,75.899 169.526,169.525l0,678.949c0,93.627 -75.899,169.526 -169.526,169.526l-678.949,0c-93.626,0 -169.525,-75.899 -169.525,-169.526l0,-678.949c0,-93.626 75.899,-169.525 169.525,-169.525Z" style="fill:#c95111;"/>
    <g id="ArmaIO">
        <path d="M539.39,146.5l225.11,239l0,416.25c0,41.808 -33.942,75.75 -75.75,75.75l-353.5,0c-41.808,0 -75.75,-33.942 -75.75,-75.75l0,-579.5c0,-41.808 33.942,-75.75 75.75,-75.75l204.14,0Z" style="fill:#fff;fill-opacity:0.46;"/>
        <path d="M764.5,385.5l-149.36,0c-41.808,0 -75.75,-33.942 -75.75,-75.75l-0,-163.25" style="fill:#fff;fill-opacity:0.46;stroke:#c95111;stroke-width:27px;"/>
        <path d="M667.945,599.52l-0,167.96c-0,21.812 -17.709,39.52 -39.52,39.52l-380.905,0c-21.812,0 -39.52,-17.708 -39.52,-39.52l0,-167.96c0,-21.812 17.708,-39.52 39.52,-39.52l380.905,0c21.811,0 39.52,17.708 39.52,39.52Z" style="fill:#fff;stroke:#c95111;stroke-width:27px;"/>
        <path d="M284.224,723.865l-12.548,-8.92l10.583,-14.967c1.411,-2.015 2.998,-3.955 4.762,-5.82c1.764,-1.864 3.653,-3.653 5.669,-5.367c-5.341,-0.504 -10.078,-1.512 -14.211,-3.023l-17.083,-6.35l5.292,-14.362l17.083,6.199c4.031,1.511 8.214,3.678 12.547,6.5c-0.604,-2.318 -1.108,-4.661 -1.511,-7.03c-0.403,-2.368 -0.605,-4.862 -0.605,-7.483l-0,-18.292l15.42,-0l0,18.292c0,2.621 -0.201,5.115 -0.605,7.483c-0.403,2.369 -0.957,4.712 -1.663,7.03c4.435,-2.822 8.668,-4.989 12.699,-6.5l17.084,-6.199l5.291,14.362l-17.083,6.35c-4.133,1.511 -8.869,2.519 -14.211,3.023c2.016,1.714 3.905,3.503 5.669,5.367c1.764,1.865 3.351,3.805 4.762,5.82l10.583,14.967l-12.548,8.92l-10.734,-14.967c-1.411,-2.016 -2.696,-4.157 -3.855,-6.425c-1.159,-2.268 -2.192,-4.611 -3.099,-7.03c-0.907,2.318 -1.94,4.636 -3.099,6.954c-1.159,2.318 -2.444,4.485 -3.855,6.501l-10.734,14.967Z" style="fill:#c95111;fill-rule:nonzero;"/>
        <path d="M392.619,740.192c-4.233,-0 -7.635,-1.285 -10.205,-3.855c-2.57,-2.57 -3.855,-5.921 -3.855,-10.054c0,-4.132 1.285,-7.508 3.855,-10.129c2.57,-2.62 5.972,-3.93 10.205,-3.93c4.233,-0 7.634,1.31 10.204,3.93c2.57,2.621 3.856,5.997 3.856,10.129c-0,4.133 -1.286,7.484 -3.856,10.054c-2.57,2.57 -5.971,3.855 -10.204,3.855Z" style="fill:#c95111;fill-rule:nonzero;"/>
        <path d="M443.264,738.68l27.816,-110.36l24.34,-0l27.968,110.36l-19.351,0l-6.047,-26.759l-29.328,0l-6.048,26.759l-19.35,0Zm28.875,-42.179l22.374,0l-6.652,-29.631c-1.108,-4.938 -2.066,-9.398 -2.872,-13.379c-0.806,-3.981 -1.361,-6.878 -1.663,-8.693c-0.303,1.815 -0.857,4.712 -1.663,8.693c-0.806,3.981 -1.764,8.391 -2.872,13.228l-6.652,29.782Z" style="fill:#c95111;fill-rule:nonzero;"/>
        <path d="M572.975,740.192c-10.885,-0 -19.502,-2.847 -25.852,-8.542c-6.349,-5.694 -9.524,-13.429 -9.524,-23.206l19.048,0c0,4.637 1.462,8.34 4.384,11.112c2.923,2.772 6.955,4.157 12.095,4.157c5.039,0 9.02,-1.385 11.943,-4.157c2.923,-2.772 4.384,-6.475 4.384,-11.112l-0,-8.314c-0,-4.939 -1.436,-8.794 -4.309,-11.566c-2.872,-2.771 -6.878,-4.157 -12.018,-4.157l-13.909,0l0,-15.118l25.398,-24.339l-43.086,-0l0,-16.63l63.798,-0l-0,16.025l-25.398,24.34c8.869,1.209 15.848,4.56 20.938,10.053c5.09,5.493 7.634,12.623 7.634,21.392l0,8.314c0,9.777 -3.2,17.512 -9.599,23.206c-6.4,5.695 -15.043,8.542 -25.927,8.542Z" style="fill:#c95111;fill-rule:nonzero;"/>
    </g>
</svg>
